<?xml version="1.0" encoding="utf-8"?>
<!-- Generator: Adobe Illustrator 16.0.0, SVG Export Plug-In . SVG Version: 6.00 Build 0)  -->
<!DOCTYPE svg PUBLIC "-//W3C//DTD SVG 1.1//EN" "http://www.w3.org/Graphics/SVG/1.1/DTD/svg11.dtd">
<svg version="1.1" id="Capa_1" xmlns="http://www.w3.org/2000/svg" xmlns:xlink="http://www.w3.org/1999/xlink" x="0px" y="0px"
	 width="1024px" height="1024px" viewBox="0 0 1024 1024" enable-background="new 0 0 1024 1024" xml:space="preserve">
<path stroke="#000000" stroke-miterlimit="10" d="M10.704,440.873c-10.981,8.546-12.129,19.646-9.54,27.182
	c2.586,7.535,10.308,15.591,24.224,15.591h62.276c0,0,6.375-0.617,6.375,5.896c0,112.24,0,448.964,0,448.964
	c0,17.084,13.899,30.983,30.983,30.983h276.487c17.084,0,30.983-13.899,30.983-30.983V806.174c0-6.173-0.17-16.152-0.383-22.168
	c-0.011-0.407-0.822-41.162,23.176-65.809c12.789-13.14,30.328-19.525,53.617-19.525c24.707,0,44.189,6.984,57.906,20.757
	c24.713,24.818,24.834,64.62,24.834,64.936c-0.074,6-0.137,15.81-0.137,21.807v132.331c0,17.084,13.898,30.983,30.982,30.983
	h276.486c17.084,0,30.984-13.899,30.984-30.983c0,0,0-334.363,0-445.82c0-9.766,8.385-9.036,8.385-9.036h60.266
	c13.916,0,21.637-8.053,24.225-15.591c2.594-7.536,1.445-18.636-9.533-27.18c0,0-90.248-69.211-90.248-69.505
	c0,0-7.531-7.333-7.531-22.151c0-37.937,0-151.748,0-151.748c0-17.084-13.9-30.983-30.984-30.983H773.135
	c-17.084,0-30.982,13.899-30.982,30.983c0,0,0,19.094,0,25.458c0,7.072-3.855,3.823-3.855,3.823S521.332,60.511,514.785,60.511
	 M782.566,212.485c0-5.388,5.385-5.588,5.385-5.588h80.146c0,0,7.012-0.248,7.012,7.161c0,26.775,0,78.531,0,107.095
	c0,11.9-6.838,6.792-6.838,6.792l-84.643-65.903c-0.398-0.52-1.063-1.565-1.063-5.27
	C782.566,256.772,782.566,224.332,782.566,212.485z M938.947,434.196c0,0,8.168,9.036-3.506,9.036c-3.729,0-14.906,0-14.906,0
	c-17.084,0-30.984,13.899-30.984,30.983v444.823c0,0,1.322,10.033-9.791,10.033c-59.018,0-174.609,0-236.078,0
	c-11.787,0-11.758-11.044-11.758-11.044v-111.86c0-5.859,0.063-15.443,0.133-21.303c0.029-2.296,0.273-56.616-36.303-93.647
	c-21.602-21.872-50.822-32.961-86.848-32.961c-34.439,0-62.314,10.773-82.843,32.023c-35.905,37.166-34.418,92.693-34.338,95.043
	c0.194,5.612,0.358,15.157,0.358,20.845v115.229c0,0,0.703,7.676-11.757,7.676c-61.469,0-175.543,0-234.059,0
	c-13.471,0-11.811-11.044-11.811-11.044V474.216c0-17.084-13.899-30.983-30.983-30.983c0,0-15.22,0-20.295,0
	c-8.083,0-1.269-6.579-1.269-6.579l441.585-324.586 M496.459,611.159"/>
<path d="M-157.376,505.591"/>
<path d="M523.422,109"/>
<line fill="none" x1="151.608" y1="444.096" x2="523.422" y2="154.61"/>
</svg>
