<?xml version="1.0" encoding="utf-8"?>
<!-- Generator: Adobe Illustrator 16.0.0, SVG Export Plug-In . SVG Version: 6.00 Build 0)  -->
<!DOCTYPE svg PUBLIC "-//W3C//DTD SVG 1.1//EN" "http://www.w3.org/Graphics/SVG/1.1/DTD/svg11.dtd">
<svg version="1.1" id="Capa_1" xmlns="http://www.w3.org/2000/svg" xmlns:xlink="http://www.w3.org/1999/xlink" x="0px" y="0px"
	 width="1024px" height="1024px" viewBox="0 0 1024 1024" enable-background="new 0 0 1024 1024" xml:space="preserve">
<g id="XMLID_1_">
	<g>
		<path d="M875.11,214.06c0,26.77,0,78.53,0,107.09c0,11.9-6.841,6.8-6.841,6.8l-84.64-65.91c-0.399-0.52-1.06-1.56-1.06-5.27
			c0,0,0-32.44,0-44.28c0-5.39,5.38-5.59,5.38-5.59H868.1C868.1,206.9,875.11,206.65,875.11,214.06z"/>
		<path d="M938.95,434.2c0,0,8.17,9.03-3.51,9.03c-3.73,0-14.9,0-14.9,0c-17.09,0-30.99,13.9-30.99,30.99v444.82
			c0,0,1.32,10.03-9.79,10.03c-59.02,0-174.609,0-236.08,0c-11.729,0-11.76-10.931-11.76-11.04V806.17c0-5.86,0.07-15.45,0.14-21.3
			c0.03-2.3,0.271-56.62-36.31-93.65c-21.6-21.87-50.82-32.96-86.84-32.96c-34.44,0-62.32,10.771-82.85,32.021
			c-35.9,37.17-34.41,92.689-34.33,95.04c0.19,5.62,0.35,15.16,0.35,20.85V921.4c0,0,0.71,7.67-11.75,7.67
			c-61.47,0-175.55,0-234.06,0c-13.47,0-11.81-11.04-11.81-11.04V474.22c0-17.09-13.9-30.99-30.99-30.99c0,0-15.22,0-20.29,0
			c-8.08,0-1.27-6.58-1.27-6.58l441.58-324.58L938.95,434.2z"/>
		<path d="M1013.3,440.88c10.98,8.54,12.13,19.64,9.53,27.17c-2.58,7.54-10.3,15.6-24.22,15.6H938.34c0,0-8.38-0.73-8.38,9.03
			c0,111.459,0,445.82,0,445.82c0,17.09-13.9,30.99-30.99,30.99H622.49c-17.09,0-30.98-13.9-30.98-30.99V806.17
			c0-6,0.061-15.81,0.13-21.81c0-0.311-0.12-40.11-24.83-64.931c-13.72-13.77-33.199-20.76-57.91-20.76
			c-23.29,0-40.83,6.39-53.61,19.53c-24,24.64-23.19,65.399-23.18,65.81c0.21,6.01,0.38,15.99,0.38,22.16V938.5
			c0,17.09-13.9,30.99-30.98,30.99H125.02c-17.08,0-30.98-13.9-30.98-30.99c0,0,0-336.72,0-448.96c0-6.51-6.38-5.89-6.38-5.89H25.39
			c-13.92,0-21.64-8.06-24.23-15.6c-2.59-7.53-1.44-18.63,9.54-27.18L514.79,60.51c6.54,0,223.51,166.24,223.51,166.24
			s3.851,3.25,3.851-3.82c0-6.37,0-25.46,0-25.46c0-17.08,13.899-30.98,30.979-30.98h111.41c17.08,0,30.979,13.9,30.979,30.98
			c0,0,0,113.81,0,151.75c0,14.82,7.53,22.15,7.53,22.15C923.05,371.66,1013.3,440.88,1013.3,440.88z M935.44,443.23
			c11.68,0,3.51-9.03,3.51-9.03L523.49,112.07L81.91,436.65c0,0-6.81,6.58,1.27,6.58c5.07,0,20.29,0,20.29,0
			c17.09,0,30.99,13.9,30.99,30.99v443.81c0,0-1.66,11.04,11.81,11.04c58.51,0,172.59,0,234.06,0c12.46,0,11.75-7.67,11.75-7.67
			V806.17c0-5.689-0.16-15.229-0.35-20.85c-0.08-2.351-1.57-57.87,34.33-95.04c20.53-21.25,48.41-32.021,82.85-32.021
			c36.02,0,65.24,11.09,86.84,32.96c36.58,37.03,36.34,91.351,36.31,93.65c-0.069,5.85-0.14,15.439-0.14,21.3v111.86
			c0,0.109,0.03,11.04,11.76,11.04c61.471,0,177.061,0,236.08,0c11.11,0,9.79-10.03,9.79-10.03V474.22
			c0-17.09,13.9-30.99,30.99-30.99C920.54,443.23,931.71,443.23,935.44,443.23z M875.11,321.15c0-28.56,0-80.32,0-107.09
			c0-7.41-7.011-7.16-7.011-7.16H787.95c0,0-5.38,0.2-5.38,5.59c0,11.84,0,44.28,0,44.28c0,3.71,0.66,4.75,1.06,5.27l84.64,65.91
			C868.27,327.95,875.11,333.05,875.11,321.15z"/>
	</g>
	<g>
		<path fill="none" stroke="#000000" stroke-miterlimit="10" d="M10.7,440.87c-10.98,8.55-12.13,19.65-9.54,27.18
			c2.59,7.54,10.31,15.6,24.23,15.6h62.27c0,0,6.38-0.62,6.38,5.89c0,112.24,0,448.96,0,448.96c0,17.09,13.9,30.99,30.98,30.99
			h276.49c17.08,0,30.98-13.9,30.98-30.99V806.17c0-6.17-0.17-16.15-0.38-22.16c-0.01-0.41-0.82-41.17,23.18-65.81
			c12.78-13.141,30.32-19.53,53.61-19.53c24.71,0,44.19,6.99,57.91,20.76c24.71,24.82,24.83,64.62,24.83,64.931
			c-0.069,6-0.13,15.81-0.13,21.81V938.5c0,17.09,13.891,30.99,30.98,30.99H898.97c17.09,0,30.99-13.9,30.99-30.99
			c0,0,0-334.36,0-445.82c0-9.76,8.38-9.03,8.38-9.03h60.271c13.92,0,21.64-8.06,24.22-15.6c2.6-7.53,1.45-18.63-9.53-27.17
			c0,0-90.25-69.22-90.25-69.51c0,0-7.53-7.33-7.53-22.15c0-37.94,0-151.75,0-151.75c0-17.08-13.899-30.98-30.979-30.98H773.13
			c-17.08,0-30.979,13.9-30.979,30.98c0,0,0,19.09,0,25.46c0,7.07-3.851,3.82-3.851,3.82S521.33,60.51,514.79,60.51"/>
		<path fill="none" stroke="#000000" stroke-miterlimit="10" d="M782.57,212.49c0-5.39,5.38-5.59,5.38-5.59H868.1
			c0,0,7.011-0.25,7.011,7.16c0,26.77,0,78.53,0,107.09c0,11.9-6.841,6.8-6.841,6.8l-84.64-65.91c-0.399-0.52-1.06-1.56-1.06-5.27
			C782.57,256.77,782.57,224.33,782.57,212.49z"/>
		<path fill="none" stroke="#000000" stroke-miterlimit="10" d="M938.95,434.2c0,0,8.17,9.03-3.51,9.03c-3.73,0-14.9,0-14.9,0
			c-17.09,0-30.99,13.9-30.99,30.99v444.82c0,0,1.32,10.03-9.79,10.03c-59.02,0-174.609,0-236.08,0
			c-11.729,0-11.76-10.931-11.76-11.04V806.17c0-5.86,0.07-15.45,0.14-21.3c0.03-2.3,0.271-56.62-36.31-93.65
			c-21.6-21.87-50.82-32.96-86.84-32.96c-34.44,0-62.32,10.771-82.85,32.021c-35.9,37.17-34.41,92.689-34.33,95.04
			c0.19,5.62,0.35,15.16,0.35,20.85V921.4c0,0,0.71,7.67-11.75,7.67c-61.47,0-175.55,0-234.06,0c-13.47,0-11.81-11.04-11.81-11.04
			V474.22c0-17.09-13.9-30.99-30.99-30.99c0,0-15.22,0-20.29,0c-8.08,0-1.27-6.58-1.27-6.58l441.58-324.58"/>
	</g>
</g>
<path d="M-157.376,505.591"/>
<path d="M523.422,109"/>
<line fill="none" x1="151.608" y1="444.096" x2="523.422" y2="154.61"/>
</svg>
