<?xml version="1.0" encoding="utf-8"?>
<!-- Generator: Adobe Illustrator 16.0.0, SVG Export Plug-In . SVG Version: 6.00 Build 0)  -->
<!DOCTYPE svg PUBLIC "-//W3C//DTD SVG 1.1//EN" "http://www.w3.org/Graphics/SVG/1.1/DTD/svg11.dtd">
<svg version="1.1" id="Capa_1" xmlns="http://www.w3.org/2000/svg" xmlns:xlink="http://www.w3.org/1999/xlink" x="0px" y="0px"
	 width="1024px" height="1024px" viewBox="0 0 1024 1024" enable-background="new 0 0 1024 1024" xml:space="preserve">
<g id="XMLID_1_">
	<g>
		<path d="M875.11,211.06c0,26.78,0,78.53,0,107.1c0,11.9-6.841,6.79-6.841,6.79l-84.64-65.91c-0.399-0.52-1.07-1.56-1.07-5.27
			c0,0,0-32.44,0-44.28c0-5.39,5.391-5.59,5.391-5.59h80.14C868.09,203.9,875.11,203.65,875.11,211.06z"/>
		<path d="M1013.3,437.88c10.98,8.54,12.13,19.64,9.53,27.18c-2.59,7.53-10.311,15.59-24.22,15.59H938.34c0,0-8.38-0.73-8.38,9.03
			c0,111.459,0,445.82,0,445.82c0,17.09-13.9,30.99-30.99,30.99H622.49c-17.09,0-30.99-13.9-30.99-30.99V803.17
			c0-5.99,0.07-15.8,0.14-21.8c0-0.32-0.12-40.12-24.83-64.94c-13.72-13.77-33.199-20.76-57.91-20.76
			c-23.29,0-40.83,6.39-53.62,19.53c-24,24.649-23.18,65.399-23.17,65.81c0.21,6.01,0.38,15.99,0.38,22.17v132.33
			c0,17.08-13.9,30.98-30.98,30.98H125.02c-17.08,0-30.98-13.9-30.98-30.98c0,0,0-336.729,0-448.97c0-6.51-6.38-5.89-6.38-5.89
			H25.38c-13.91,0-21.63-8.06-24.22-15.59c-2.59-7.54-1.44-18.64,9.54-27.18l282.73-220.14c5.46-4.25,12.31-6.6,19.3-6.6
			c9.27,0,18.02,4.01,23.98,10.99l75.59,88.51c9.4,11.01,11.02,28.12,3.83,40.69L354.8,458.65c0,0-7.6,9.7,2.21,17.76
			c17.94,14.73,52.83,41.109,72.86,57.57c10.28,8.46,4.96-6.04,4.96-6.04l-16.5-45.371c-4.34-11.93-2.13-27.41,5.36-37.66
			c0,0,61.47-77.72,77.75-106.35c6.18-10.87,1.63-17.01,1.63-17.01L440.96,202.6c-5.82-11.15-5.8-26.71,0.06-37.85L489.1,73.3
			c5.12-9.74,14.96-15.79,25.68-15.79c6.55,0,12.819,2.19,18.13,6.33l205.38,159.91c0,0,3.86,3.25,3.86-3.82c0-6.36,0-25.46,0-25.46
			c0-17.08,13.899-30.98,30.979-30.98h111.41c17.08,0,30.979,13.9,30.979,30.98c0,0,0,113.81,0,151.75
			c0,14.82,7.53,22.15,7.53,22.15C923.05,368.67,1013.3,437.88,1013.3,437.88z M935.44,440.23c11.67,0,3.5-9.03,3.5-9.03
			L524.38,108.41c0,0-6.21-3.32-9.55,2.79c-7.55,13.8-26.38,50.75-33.61,63.87c-3.06,5.55,1.66,8.52,1.66,8.52l352.65,263.24
			c7.16,5.34,8.63,15.47,3.29,22.62c-3.181,4.26-8.04,6.5-12.971,6.5c-3.359,0-6.75-1.05-9.659-3.21L519.54,251.31
			c0,0-12.03-7.91-4.51,5.83c7.569,13.83,29.2,55.92,29.2,55.92c6.26,11.98,5.01,28.6-2.971,39.52l-84.55,115.65
			c-0.1,0.34-0.17,0.82-0.17,1.17l41.95,115.37c4.05,11.15,1.13,18.87-2.03,23.391c-2.01,2.87-4.67,5.16-7.71,6.729
			c-3.04,1.57-6.47,2.431-10,2.431c-5.65,0-11.22-2.13-16.54-6.33L318.22,497.37c-12.4-9.79-15.97-28.2-8.14-41.92l34.98-61.2
			c0,0,0.57-5.93-6.48-1.19c-30.87,20.77-125.27,80.33-125.27,80.33c-2.7,1.73-5.73,2.56-8.71,2.56c-5.33,0-10.54-2.63-13.62-7.45
			c-4.82-7.51-2.64-17.51,4.88-22.33l173.26-111.09c0,0,6.83-4.8,1.04-11.55c-12.33-14.4-45.02-53.33-55.56-65.06
			c-3.32-3.68-8.21,0.4-8.21,0.4L81.91,433.66c0,0-6.82,6.57,1.27,6.57c5.07,0,20.29,0,20.29,0c17.08,0,30.98,13.9,30.98,30.99
			v443.81c0,0-1.66,11.04,11.82,11.04c58.51,0,172.59,0,234.05,0c12.46,0,11.76-7.67,11.76-7.67V803.17
			c0-5.689-0.16-15.229-0.36-20.84c-0.08-2.35-1.56-57.88,34.34-95.05c20.53-21.25,48.4-32.021,82.84-32.021
			c36.03,0,65.25,11.09,86.85,32.96c36.58,37.03,36.33,91.351,36.3,93.65c-0.069,5.86-0.13,15.439-0.13,21.3v111.86
			c0,0.109,0.03,11.04,11.76,11.04c61.471,0,177.061,0,236.08,0c11.11,0,9.79-10.03,9.79-10.03V471.22
			c0-17.09,13.9-30.99,30.98-30.99C920.53,440.23,931.71,440.23,935.44,440.23z M875.11,318.16c0-28.57,0-80.32,0-107.1
			c0-7.41-7.021-7.16-7.021-7.16h-80.14c0,0-5.391,0.2-5.391,5.59c0,11.84,0,44.28,0,44.28c0,3.71,0.671,4.75,1.07,5.27l84.64,65.91
			C868.27,324.95,875.11,330.06,875.11,318.16z"/>
		<path d="M938.94,431.2c0,0,8.17,9.03-3.5,9.03c-3.73,0-14.91,0-14.91,0c-17.08,0-30.98,13.9-30.98,30.99v444.82
			c0,0,1.32,10.03-9.79,10.03c-59.02,0-174.609,0-236.08,0c-11.729,0-11.76-10.931-11.76-11.04V803.17
			c0-5.86,0.061-15.439,0.13-21.3c0.03-2.3,0.28-56.62-36.3-93.65c-21.6-21.87-50.82-32.96-86.85-32.96
			c-34.44,0-62.31,10.771-82.84,32.021c-35.9,37.17-34.42,92.7-34.34,95.05c0.2,5.61,0.36,15.15,0.36,20.84V918.4
			c0,0,0.7,7.67-11.76,7.67c-61.46,0-175.54,0-234.05,0c-13.48,0-11.82-11.04-11.82-11.04V471.22c0-17.09-13.9-30.99-30.98-30.99
			c0,0-15.22,0-20.29,0c-8.09,0-1.27-6.57-1.27-6.57l224.48-174.79c0,0,4.89-4.08,8.21-0.4c10.54,11.73,43.23,50.66,55.56,65.06
			c5.79,6.75-1.04,11.55-1.04,11.55L195.86,446.17c-7.52,4.82-9.7,14.82-4.88,22.33c3.08,4.82,8.29,7.45,13.62,7.45
			c2.98,0,6.01-0.83,8.71-2.56c0,0,94.4-59.56,125.27-80.33c7.05-4.74,6.48,1.19,6.48,1.19l-34.98,61.2
			c-7.83,13.72-4.26,32.13,8.14,41.92l143.99,113.62c5.32,4.2,10.89,6.33,16.54,6.33c3.53,0,6.96-0.86,10-2.431
			c3.04-1.569,5.7-3.859,7.71-6.729c3.16-4.521,6.08-12.24,2.03-23.391L456.54,469.4c0-0.35,0.07-0.83,0.17-1.17l84.55-115.65
			c7.98-10.92,9.23-27.54,2.971-39.52c0,0-21.631-42.09-29.2-55.92c-7.521-13.74,4.51-5.83,4.51-5.83l296.65,221.43
			c2.909,2.16,6.3,3.21,9.659,3.21c4.931,0,9.79-2.24,12.971-6.5c5.34-7.15,3.87-17.28-3.29-22.62L482.88,183.59
			c0,0-4.72-2.97-1.66-8.52c7.23-13.12,26.06-50.07,33.61-63.87c3.34-6.11,9.55-2.79,9.55-2.79L938.94,431.2z"/>
	</g>
	<g>
	</g>
</g>
</svg>
